<svg width="92" height="29" viewBox="0 0 92 29" fill="none" xmlns="http://www.w3.org/2000/svg">
<g clip-path="url(#clip0_114_18)">
<path d="M92 0H0V29H92V0Z" fill="#ED4989"/>
<path d="M14.9229 7.76263C16.2692 7.75296 17.588 8.13986 18.7122 8.87427C19.8363 9.60868 20.7151 10.6575 21.2371 11.8877C21.7591 13.1179 21.9007 14.4741 21.6441 15.7842C21.3874 17.0943 20.744 18.2994 19.7955 19.2465C18.8469 20.1936 17.636 20.8402 16.3163 21.1041C14.9966 21.3681 13.6275 21.2375 12.3827 20.7291C11.1379 20.2206 10.0735 19.3571 9.32449 18.2481C8.57547 17.1391 8.17559 15.8346 8.17555 14.5C8.16774 13.6172 8.33657 12.7416 8.67227 11.9239C9.00798 11.1062 9.5039 10.3625 10.1314 9.736C10.7588 9.10947 11.5054 8.61247 12.3278 8.27375C13.1502 7.93503 14.0323 7.7613 14.9229 7.76263ZM11.5246 18.9916C11.5738 19.0404 11.6231 19.0892 11.6723 19.0892C12.3965 19.5831 13.2197 19.9161 14.0856 20.0657C14.9951 20.2056 15.9253 20.1218 16.7944 19.8215C17.0899 19.7239 17.0899 19.7239 17.0406 19.431C16.8766 18.4469 16.6126 17.4819 16.2526 16.5505C16.1513 16.2139 16.0194 15.8871 15.8586 15.5741C14.9435 15.83 14.089 16.2639 13.3449 16.8507C12.6007 17.4375 11.9819 18.1652 11.5246 18.9916ZM15.4154 14.5C15.3169 14.2559 15.1691 14.0118 15.0706 13.8165C15.0648 13.7853 15.0518 13.7558 15.0325 13.7304C15.0133 13.7051 14.9884 13.6844 14.9597 13.6702C14.9311 13.656 14.8995 13.6486 14.8674 13.6486C14.8354 13.6486 14.8038 13.6559 14.7751 13.67C13.7455 13.9636 12.6901 14.1598 11.6231 14.2559C10.8843 14.3047 10.0963 14.3535 9.35756 14.3535C9.20981 14.3535 9.16056 14.4024 9.16056 14.5488C9.17171 15.3225 9.33917 16.0862 9.65307 16.7946C9.88882 17.3119 10.2045 17.7896 10.5888 18.2104C11.7437 16.4825 13.4396 15.1787 15.4154 14.5ZM14.4796 12.596V12.5471C13.8972 11.5189 13.2559 10.5246 12.5588 9.56903C12.5096 9.47138 12.4603 9.47138 12.3618 9.5202C11.6613 9.88202 11.0415 10.3802 10.5396 10.9849C10.0158 11.6083 9.64488 12.3436 9.45607 13.133C9.40682 13.2795 9.45607 13.3283 9.60382 13.2795C9.75327 13.2874 9.90302 13.2709 10.0471 13.2306C11.1045 13.1892 12.1577 13.075 13.1991 12.8889C13.6325 12.822 14.0605 12.7241 14.4796 12.596ZM18.6659 10.2525C17.8315 9.49937 16.7817 9.0217 15.6616 8.88552C15.0046 8.79603 14.3364 8.82915 13.6916 8.98317C14.4435 9.93823 15.1187 10.9503 15.7109 12.0101C15.7179 12.0287 15.7293 12.0453 15.7442 12.0585C15.7591 12.0717 15.777 12.0811 15.7964 12.0859C15.8158 12.0907 15.8361 12.0908 15.8555 12.0861C15.8749 12.0814 15.8929 12.0721 15.9079 12.0589C16.6828 11.7608 17.3994 11.3313 18.0257 10.7896C18.2644 10.6426 18.4802 10.4616 18.6659 10.2525ZM20.5374 14.3535C20.7344 13.67 19.8972 11.3754 19.3554 11.0337C18.9968 11.399 18.6006 11.7263 18.1734 12.0101C17.5824 12.4007 16.9914 12.6936 16.4004 13.0354C16.3019 13.0842 16.2526 13.133 16.3019 13.2795C16.3511 13.4259 16.4496 13.6212 16.5481 13.7677C16.7451 14.1583 16.7451 14.1583 17.1391 14.1094C17.9249 14.0036 18.7225 14.02 19.5032 14.1583C19.8479 14.2071 20.1927 14.3047 20.5374 14.3535ZM18.0749 19.138H18.1242C18.1372 19.138 18.1498 19.1329 18.159 19.1237C18.1682 19.1146 18.1734 19.1022 18.1734 19.0892C19.3281 18.2877 20.1367 17.0854 20.4389 15.7205C20.4882 15.4764 20.4882 15.4764 20.2419 15.4276C19.4529 15.2312 18.6422 15.1328 17.8287 15.1347C17.5638 15.1461 17.3002 15.1788 17.0406 15.2323C17.5513 16.4854 17.8989 17.7979 18.0749 19.138Z" fill="#F6FFFF"/>
<path d="M32.1851 11.7416C31.6278 11.4148 30.9906 11.2459 30.3431 11.2534H27.8806V18.6987H30.3431C30.9909 18.7085 31.6287 18.5395 32.1851 18.2105C32.7384 17.8785 33.1963 17.4112 33.5149 16.8532C33.8408 16.283 34.0121 15.6388 34.0121 14.9834C34.0121 14.328 33.8408 13.6838 33.5149 13.1135C33.1969 12.5513 32.7391 12.079 32.1851 11.7416ZM32.1506 16.1356C31.9562 16.4826 31.6724 16.7724 31.3282 16.9753C30.9843 17.1787 30.5909 17.2851 30.1905 17.2829H29.4468V12.6644H30.1905C30.5909 12.6622 30.9843 12.7685 31.3282 12.9719C31.8462 13.2899 32.2207 13.7936 32.3739 14.3782C32.5271 14.9628 32.4471 15.5835 32.1506 16.1112V16.1356Z" fill="#F6FFFF"/>
<path d="M40.5529 15.8671C40.5233 15.8671 40.4888 15.8329 40.4593 15.8085C40.7858 15.5975 41.0526 15.3074 41.2345 14.9657C41.4163 14.624 41.5072 14.2419 41.4985 13.8556C41.5024 13.3938 41.3835 12.9391 41.1537 12.5374C40.9356 12.1348 40.6124 11.7976 40.218 11.561C39.8317 11.3297 39.3887 11.2081 38.9374 11.2095H36.1548V18.6987H37.7209V16.2576H38.6272C38.8632 16.2395 39.0983 16.3033 39.292 16.4383C39.4601 16.5854 39.5888 16.7716 39.6663 16.9802L40.3854 18.6987H41.9319L41.1291 16.7458C41.0154 16.4091 40.8171 16.1067 40.5529 15.8671ZM37.7209 12.6937H38.8242C38.9716 12.6929 39.1175 12.7229 39.2524 12.7818C39.3874 12.8407 39.5083 12.9271 39.6072 13.0354C39.8156 13.2576 39.9315 13.5498 39.9315 13.8532C39.9315 14.1566 39.8156 14.4487 39.6072 14.6709C39.5085 14.7799 39.3878 14.8671 39.2529 14.9268C39.118 14.9865 38.9719 15.0174 38.8242 15.0176H37.7209V12.6937Z" fill="#F6FFFF"/>
<path d="M45.3648 11.2388H43.7986V18.6987H45.3648V11.2388Z" fill="#F6FFFF"/>
<path d="M52.2351 14.7686C52.4447 14.6218 52.614 14.4254 52.7276 14.1974C52.8508 13.9535 52.9132 13.684 52.9099 13.4113C52.9118 13.0278 52.8116 12.6505 52.6193 12.3177C52.4323 11.9909 52.1624 11.7182 51.8362 11.5268C51.5126 11.3372 51.1434 11.2377 50.7675 11.2388H47.6794V18.6987H50.9349C51.3355 18.7022 51.7292 18.5957 52.0726 18.3911C52.4156 18.1942 52.7022 17.9135 52.9049 17.5758C53.1101 17.2245 53.2156 16.8247 53.2103 16.4187C53.2176 16.0754 53.1272 15.737 52.9493 15.4423C52.7818 15.1541 52.5338 14.9201 52.2351 14.7686ZM49.2505 12.6937H50.6296C50.7217 12.6937 50.8129 12.7124 50.8976 12.7485C50.9822 12.7845 51.0586 12.8373 51.1221 12.9036C51.1885 12.9668 51.2414 13.0426 51.2778 13.1265C51.3141 13.2103 51.3332 13.3005 51.3338 13.3918C51.3363 13.5846 51.262 13.7705 51.127 13.9093C51.064 13.9765 50.9878 14.0302 50.9031 14.0671C50.8184 14.104 50.727 14.1234 50.6345 14.1241H49.2505V12.6937ZM51.4176 16.9607C51.3456 17.0363 51.2585 17.0962 51.1618 17.1366C51.0651 17.1769 50.961 17.1968 50.8561 17.195H49.2505V15.623H50.8561C50.9615 15.6208 51.0661 15.6411 51.163 15.6823C51.2598 15.7236 51.3466 15.7849 51.4176 15.8622C51.4925 15.9361 51.5519 16.024 51.5925 16.1208C51.633 16.2175 51.6539 16.3213 51.6539 16.4261C51.6539 16.5309 51.633 16.6346 51.5925 16.7314C51.5519 16.8281 51.4925 16.916 51.4176 16.99V16.9607Z" fill="#F6FFFF"/>
<path d="M59.8984 14.7686C60.108 14.6218 60.2773 14.4254 60.3909 14.1974C60.5163 13.9543 60.5789 13.6843 60.5731 13.4113C60.5751 13.0278 60.4749 12.6505 60.2826 12.3177C60.0956 11.9909 59.8257 11.7182 59.4995 11.5268C59.1759 11.3372 58.8066 11.2377 58.4307 11.2388H55.3477V18.6987H58.608C59.0086 18.7022 59.4024 18.5957 59.7457 18.3911C60.0888 18.1942 60.3753 17.9135 60.5781 17.5758C60.7847 17.2249 60.892 16.8251 60.8883 16.4187C60.8942 16.0749 60.802 15.7365 60.6224 15.4423C60.4523 15.1527 60.2007 14.9186 59.8984 14.7686ZM56.9089 12.6937H58.2928C58.4814 12.6975 58.6611 12.7741 58.7935 12.9072C58.926 13.0404 59.0008 13.2195 59.002 13.4065C59.0045 13.5992 58.9302 13.7852 58.7952 13.924C58.7324 13.9913 58.6562 14.0452 58.5715 14.0821C58.4868 14.1191 58.3953 14.1384 58.3027 14.1388H56.9187L56.9089 12.6937ZM59.1005 16.9655C59.028 17.0405 58.9408 17.0999 58.8443 17.1402C58.7477 17.1805 58.6439 17.2008 58.5391 17.1999H56.9286V15.623H58.5391C58.6443 15.6217 58.7487 15.6424 58.8454 15.6836C58.9421 15.7248 59.029 15.7856 59.1005 15.8622C59.2494 16.0128 59.3328 16.2152 59.3328 16.4261C59.3328 16.6369 59.2494 16.8394 59.1005 16.99V16.9655Z" fill="#F6FFFF"/>
<path d="M67.5619 14.7686C67.7715 14.6218 67.9408 14.4255 68.0544 14.1974C68.1798 13.9543 68.2425 13.6843 68.2367 13.4114C68.2387 13.0278 68.1384 12.6506 67.9461 12.3177C67.7592 11.9909 67.4892 11.7182 67.163 11.5268C66.8397 11.3365 66.4703 11.237 66.0943 11.2388H63.0161V18.6987H66.2667C66.6687 18.7016 67.0639 18.5952 67.4093 18.3911C67.7479 18.1919 68.0307 17.9115 68.2317 17.5758C68.4384 17.2249 68.5456 16.8251 68.542 16.4188C68.5479 16.075 68.4557 15.7365 68.2761 15.4423C68.1086 15.1541 67.8606 14.9202 67.5619 14.7686ZM64.5724 12.6937H65.9564C66.145 12.6975 66.3246 12.7741 66.4571 12.9072C66.5895 13.0404 66.6643 13.2195 66.6656 13.4065C66.668 13.5992 66.5937 13.7852 66.4587 13.924C66.3959 13.9914 66.3197 14.0452 66.235 14.0822C66.1503 14.1191 66.0588 14.1384 65.9662 14.1388H64.5823L64.5724 12.6937ZM66.7444 16.9607C66.6719 17.0356 66.5846 17.0951 66.4881 17.1354C66.3915 17.1757 66.2877 17.196 66.1829 17.195H64.5724V15.623H66.1829C66.2882 15.6218 66.3925 15.6424 66.4892 15.6836C66.5859 15.7248 66.6728 15.7857 66.7444 15.8622C66.8933 16.0128 66.9767 16.2152 66.9767 16.4261C66.9767 16.6369 66.8933 16.8394 66.7444 16.99V16.9607Z" fill="#F6FFFF"/>
<path d="M72.1472 11.2388H70.5811V18.6987H74.925V17.2438H72.1472V11.2388Z" fill="#F6FFFF"/>
<path d="M78.3577 15.6522H81.4063V14.2999H78.3577V12.6985L81.8003 12.7083L81.7855 11.2388H76.7915V18.6987H81.7855V17.2438H78.3577V15.6522Z" fill="#F6FFFF"/>
</g>
<defs>
<clipPath id="clip0_114_18">
<rect width="92" height="29" fill="white"/>
</clipPath>
</defs>
</svg>
