<svg id="Layer_1" data-name="Layer 1" xmlns="http://www.w3.org/2000/svg" viewBox="0 0 186.8 59.4"><defs><style>.cls-1{fill:#ed4989;}.cls-2{fill:#f6ffff;}</style></defs><title>dribbble</title><rect class="cls-1" width="186.8" height="59.4"/><path class="cls-2" d="M30.3,15.9A13.8,13.8,0,1,1,16.6,29.7,13.68,13.68,0,0,1,30.3,15.9Zm-6.9,23c.1.1.2.2.3.2a12.4,12.4,0,0,0,4.9,2,11.4,11.4,0,0,0,5.5-.5c.6-.2.6-.2.5-.8A30.3,30.3,0,0,0,33,33.9a11.92,11.92,0,0,0-.8-2A14.54,14.54,0,0,0,23.4,38.9Zm7.9-9.2c-.2-.5-.5-1-.7-1.4A.42.42,0,0,0,30,28a34.42,34.42,0,0,1-6.4,1.2c-1.5.1-3.1.2-4.6.2-.3,0-.4.1-.4.4a11.86,11.86,0,0,0,1,4.6,11.18,11.18,0,0,0,1.9,2.9A19.36,19.36,0,0,1,31.3,29.7Zm-1.9-3.9v-.1a63.3,63.3,0,0,0-3.9-6.1c-.1-.2-.2-.2-.4-.1a11.93,11.93,0,0,0-3.7,3,10.75,10.75,0,0,0-2.2,4.4q-.15.45.3.3a2.77,2.77,0,0,0,.9-.1,46.39,46.39,0,0,0,6.4-.7A18.48,18.48,0,0,0,29.4,25.8ZM37.9,21a11.06,11.06,0,0,0-6.1-2.8,10.8,10.8,0,0,0-4,.2,47.43,47.43,0,0,1,4.1,6.2.25.25,0,0,0,.4.1,14.54,14.54,0,0,0,4.3-2.6A5.83,5.83,0,0,0,37.9,21Zm3.8,8.4c.4-1.4-1.3-6.1-2.4-6.8a15,15,0,0,1-2.4,2c-1.2.8-2.4,1.4-3.6,2.1-.2.1-.3.2-.2.5s.3.7.5,1c.4.8.4.8,1.2.7a15.46,15.46,0,0,1,4.8.1C40.3,29.1,41,29.3,41.7,29.4Zm-5,9.8h.1a.1.1,0,0,0,.1-.1,11.41,11.41,0,0,0,4.6-6.9c.1-.5.1-.5-.4-.6a19.93,19.93,0,0,0-4.9-.6,10,10,0,0,0-1.6.2A32.59,32.59,0,0,1,36.7,39.2Z"/><path class="cls-2" d="M65.35,24.05a7.18,7.18,0,0,0-3.74-1h-5V38.3h5a7.09,7.09,0,0,0,3.74-1,7.66,7.66,0,0,0,2.7-2.78,7.77,7.77,0,0,0,0-7.66A7.74,7.74,0,0,0,65.35,24.05Zm-.07,9a4.6,4.6,0,0,1-1.67,1.72,4.46,4.46,0,0,1-2.31.63H59.79V25.94H61.3a4.46,4.46,0,0,1,2.31.63A4.81,4.81,0,0,1,65.28,33Z"/><path class="cls-2" d="M82.34,32.5c-.06,0-.13-.07-.19-.12a4.65,4.65,0,0,0,2.11-4,5.38,5.38,0,0,0-.7-2.7,5.23,5.23,0,0,0-1.9-2,5,5,0,0,0-2.6-.72H73.41V38.3h3.18v-5h1.84a2.07,2.07,0,0,1,1.35.37,2.75,2.75,0,0,1,.76,1.11L82,38.3h3.14l-1.63-4A4.28,4.28,0,0,0,82.34,32.5ZM76.59,26h2.24a2.13,2.13,0,0,1,1.59.7,2.46,2.46,0,0,1,0,3.35,2.14,2.14,0,0,1-1.59.71H76.59Z"/><rect class="cls-2" x="88.93" y="23.02" width="3.18" height="15.28"/><path class="cls-2" d="M106.06,30.25a3.13,3.13,0,0,0,1-1.17,3.5,3.5,0,0,0,.37-1.61,4.46,4.46,0,0,0-.59-2.24,4.41,4.41,0,0,0-1.59-1.62,4.24,4.24,0,0,0-2.17-.59H96.81V38.3h6.61a4.41,4.41,0,0,0,2.31-.63A4.72,4.72,0,0,0,107.42,36a4.61,4.61,0,0,0,.62-2.37,3.74,3.74,0,0,0-.53-2A3.53,3.53,0,0,0,106.06,30.25ZM100,26h2.8a1.38,1.38,0,0,1,1,.43,1.4,1.4,0,0,1,.43,1,1.5,1.5,0,0,1-.42,1.06,1.38,1.38,0,0,1-1,.44H100Zm4.4,8.74a1.53,1.53,0,0,1-1.14.48H100V32h3.26a1.5,1.5,0,0,1,1.14.49,1.63,1.63,0,0,1,0,2.31Z"/><path class="cls-2" d="M121.62,30.25a3.13,3.13,0,0,0,1-1.17,3.38,3.38,0,0,0,.37-1.61,4.46,4.46,0,0,0-.59-2.24,4.41,4.41,0,0,0-1.59-1.62,4.24,4.24,0,0,0-2.17-.59h-6.26V38.3H119a4.41,4.41,0,0,0,2.31-.63A4.72,4.72,0,0,0,123,36a4.62,4.62,0,0,0,.63-2.37,3.74,3.74,0,0,0-.54-2A3.53,3.53,0,0,0,121.62,30.25ZM115.55,26h2.81a1.47,1.47,0,0,1,1.44,1.46,1.5,1.5,0,0,1-.42,1.06,1.37,1.37,0,0,1-1,.44h-2.81ZM120,34.75a1.56,1.56,0,0,1-1.14.48h-3.27V32h3.27a1.53,1.53,0,0,1,1.14.49,1.65,1.65,0,0,1,0,2.31Z"/><path class="cls-2" d="M137.18,30.25a3.13,3.13,0,0,0,1-1.17,3.38,3.38,0,0,0,.37-1.61,4.46,4.46,0,0,0-.59-2.24,4.41,4.41,0,0,0-1.59-1.62,4.21,4.21,0,0,0-2.17-.59h-6.25V38.3h6.6a4.47,4.47,0,0,0,2.32-.63A4.78,4.78,0,0,0,138.54,36a4.62,4.62,0,0,0,.63-2.37,3.74,3.74,0,0,0-.54-2A3.53,3.53,0,0,0,137.18,30.25ZM131.11,26h2.81a1.47,1.47,0,0,1,1.44,1.46,1.5,1.5,0,0,1-.42,1.06,1.37,1.37,0,0,1-1,.44h-2.81Zm4.41,8.74a1.56,1.56,0,0,1-1.14.48h-3.27V32h3.27a1.53,1.53,0,0,1,1.14.49,1.65,1.65,0,0,1,0,2.31Z"/><polygon class="cls-2" points="146.49 23.02 143.31 23.02 143.31 38.3 152.13 38.3 152.13 35.32 146.49 35.32 146.49 23.02"/><polygon class="cls-2" points="159.1 32.06 165.29 32.06 165.29 29.29 159.1 29.29 159.1 26.01 166.09 26.03 166.06 23.02 155.92 23.02 155.92 38.3 166.06 38.3 166.06 35.32 159.1 35.32 159.1 32.06"/></svg>